<?xml version="1.0" encoding="utf-8"?>
<!-- Generator: Adobe Illustrator 22.0.1, SVG Export Plug-In . SVG Version: 6.00 Build 0)  -->
<svg version="1.1" id="Layer_1" xmlns="http://www.w3.org/2000/svg" xmlns:xlink="http://www.w3.org/1999/xlink" x="0px" y="0px"
	 width="37.7px" height="26.4px" viewBox="0 0 37.7 26.4" style="enable-background:new 0 0 37.7 26.4;" xml:space="preserve">
<style type="text/css">
	.st0{fill:#8C8C8C;stroke:#FFFFFF;stroke-width:0.7;}
	.st1{fill:#8C8C8C;}
</style>
<title>Group</title>
<desc>Created with Sketch.</desc>
<g id="Page-1">
	<g id="Landing" transform="translate(-167.000000, -19.000000)">
		<g id="banner-2.0">
			<g id="Group" transform="translate(168.000000, 19.000000)">
				<path id="Shape" class="st0" d="M31.3,10c-0.1-1.5-0.9-2.8-2.3-3.9l-0.5-0.4l-0.4,0.5c-0.7,1.1-1,2.5-0.9,3.7
					c0.1,0.8,0.4,1.7,0.9,2.3c-0.4,0.3-1.7,0.9-3.4,0.9H-0.5C-1,15.8-0.2,26,11.5,26c8.7,0,15.8-3.9,19.1-12.1
					c1.1,0,3.9,0.2,5.3-2.5l0.4-0.7l-0.5-0.4C34.9,9.8,32.8,9.6,31.3,10z"/>
				<rect id="Rectangle-3" x="15.7" class="st1" width="3.9" height="3.6"/>
				<rect id="Rectangle-3_1_" x="15.7" y="4.3" class="st1" width="3.9" height="3.6"/>
				<rect id="Rectangle-3_2_" x="11.1" y="4.3" class="st1" width="3.9" height="3.6"/>
				<rect id="Rectangle-3_3_" x="6.5" y="4.3" class="st1" width="3.9" height="3.6"/>
				<rect id="Rectangle-3_4_" x="1.9" y="8.5" class="st1" width="3.9" height="3.6"/>
				<rect id="Rectangle-3_5_" x="6.5" y="8.5" class="st1" width="3.9" height="3.6"/>
				<rect id="Rectangle-3_6_" x="11.1" y="8.5" class="st1" width="3.9" height="3.6"/>
				<rect id="Rectangle-3_7_" x="15.7" y="8.5" class="st1" width="3.9" height="3.6"/>
				<rect id="Rectangle-3_8_" x="20.3" y="8.5" class="st1" width="3.9" height="3.6"/>
			</g>
		</g>
	</g>
</g>
</svg>
